<?xml version="1.0" standalone="no"?><!DOCTYPE svg PUBLIC "-//W3C//DTD SVG 1.1//EN" "http://www.w3.org/Graphics/SVG/1.1/DTD/svg11.dtd"><svg t="1710229488894" class="icon" viewBox="0 0 1024 1024" version="1.1" xmlns="http://www.w3.org/2000/svg" p-id="4261" xmlns:xlink="http://www.w3.org/1999/xlink" width="200" height="200"><path d="M829.394939 1024H191.788779C115.185919 1024 55.480748 967.111111 55.480748 896.140814V127.859186C55.480748 56.888889 115.185919 0 191.788779 0h640.422442c73.786579 0 136.308031 56.888889 136.308031 127.859186v408.924092c0 16.89769-11.265127 25.909791-28.162816 25.909791s-28.726073-11.828383-28.726073-25.909791V127.859186a78.292629 78.292629 0 0 0-79.419142-76.60286H191.788779c-45.060506 2.816282-79.419142 36.611661-79.419142 76.60286v765.465346c0 39.427943 34.358636 76.60286 79.419142 76.602861h640.422442c42.244224 0 79.419142-33.79538 79.419142-76.602861v-90.684268c0-17.460946 11.265127-25.909791 28.726073-25.909791s28.162816 11.265127 28.162816 25.909791v90.684268c-2.816282 73.786579-62.521452 130.675468-139.124313 130.675468z" p-id="4262" fill="#ffffff"></path><path d="M214.319032 264.730473a34.358636 34.358636 0 0 0 68.154015 0 34.358636 34.358636 0 1 0-68.154015 0zM763.493949 292.893289H365.271727a27.036304 27.036304 0 0 1-28.726072-28.162816 28.726073 28.726073 0 0 1 28.726072-28.726073h398.222222a28.726073 28.726073 0 0 1 0 56.888889zM214.319032 489.469747a34.358636 34.358636 0 0 0 68.154015 0 34.358636 34.358636 0 1 0-68.154015 0zM760.114411 517.632563H361.892189a28.726073 28.726073 0 1 1 0-56.888889h398.222222a28.726073 28.726073 0 0 1 0 56.888889zM760.114411 742.371837H361.892189a28.726073 28.726073 0 1 1 0-56.888889h398.222222a28.726073 28.726073 0 0 1 0 56.888889zM208.123212 714.209021a34.358636 34.358636 0 0 0 68.154016 0 34.358636 34.358636 0 1 0-68.154016 0z" p-id="4263" fill="#ffffff"></path></svg>