<svg t="1713425744127" class="icon" viewBox="0 0 1024 1024" version="1.1" xmlns="http://www.w3.org/2000/svg" p-id="5954" width="200" height="200"><path d="M875.1 384.9l-187.9-47.1c-3.5-0.9-6.5-3-8.4-6.1L576.1 167.6c-4.4-7.1-10.4-13.1-17.5-17.5-9.1-5.7-19.3-8.4-29.3-8.4-18.4 0-36.4 9.2-46.9 26l-102.9 164c-1.9 3-4.9 5.2-8.4 6.1l-187.9 47.1c-8.1 2-15.7 5.9-22.1 11.2-23.4 19.6-26.5 54.5-6.9 77.9l124.3 148.5c2.3 2.7 3.4 6.3 3.2 9.8l-13.3 193.2c-0.6 8.3 0.8 16.7 3.9 24.5 8.7 21.6 29.4 34.7 51.3 34.7 6.9 0 13.9-1.3 20.6-4L524 808.4c1.7-0.7 3.4-1 5.2-1 1.8 0 3.5 0.3 5.2 1L714 880.7c6.6 2.6 13.6 4 20.7 4 1.3 0 2.5 0 3.8-0.1 30.5-2.1 53.5-28.5 51.4-59l-13.3-193.2c-0.2-3.6 0.9-7.1 3.2-9.8L904.1 474c5.4-6.4 9.2-14 11.2-22.1 7.5-29.6-10.6-59.6-40.2-67z m-1.2 56.7c-0.5 1.8-1.3 3.6-2.6 5L747 595.1c-9.4 11.3-14.1 25.5-13.1 40.2l13.3 193.2c0.5 6.9-4.8 13-11.7 13.4h-0.9c-1.6 0-3.2-0.3-4.7-0.9l-179.7-72.4c-6.7-2.7-13.9-4.1-21.1-4.1-7.3 0-14.4 1.4-21.1 4.1L328.3 841c-1.5 0.6-3.1 0.9-4.7 0.9-3.9 0-9.4-2.1-11.7-7.9-0.7-1.8-1-3.7-0.9-5.6l13.3-193.2c1-14.7-3.6-28.9-13.1-40.2L187 446.6c-4.5-5.3-3.8-13.3 1.6-17.8 1.5-1.2 3.2-2.1 5-2.6l187.9-47.1c14.2-3.6 26.4-12.4 34.2-24.8l102.8-164.1c2.3-3.7 6.3-5.9 10.7-5.9 2.4 0 4.6 0.6 6.6 1.9 1.6 1 3 2.4 4 4l102.8 164.1c7.8 12.4 19.9 21.3 34.2 24.8l187.9 47.1c6.8 1.8 10.9 8.7 9.2 15.4z" fill="#999"  p-id="5955"></path></svg>