<?xml version="1.0" standalone="no"?><!DOCTYPE svg PUBLIC "-//W3C//DTD SVG 1.1//EN" "http://www.w3.org/Graphics/SVG/1.1/DTD/svg11.dtd"><svg t="1710077484992" class="icon" viewBox="0 0 1024 1024" version="1.1" xmlns="http://www.w3.org/2000/svg" p-id="5168" xmlns:xlink="http://www.w3.org/1999/xlink" width="200" height="200"><path d="M887.9 450.9c7.3-7.2 9.9-17.7 6.7-27.4s-11.5-16.7-21.6-18.2l-216-31.4c-10.5-1.5-19.6-8.1-24.4-17.7L536 160.4c-4.5-9.2-13.7-14.9-24-14.9s-19.4 5.7-24 14.9l-96.6 195.8c-4.7 9.5-13.8 16.2-24.4 17.7l-216.1 31.4c-10.1 1.5-18.4 8.4-21.6 18.2s-0.6 20.3 6.8 27.4l156.4 152.4c7.6 7.4 11.1 18.1 9.3 28.6l-36.9 215.3c-1.7 10.1 2.4 20.1 10.7 26.1 8.3 6 19.1 6.8 28.2 2l193.3-101.6c9.4-5 20.7-5 30.1 0l193.3 101.6c3.9 2.1 8.2 3.1 12.5 3.1 5.5 0 11-1.7 15.7-5.1 8.3-6 12.4-16 10.7-26.2L722.2 632c-1.8-10.5 1.7-21.2 9.3-28.6l156.4-152.5zM696.2 567.1c-19.6 19.1-28.5 46.5-23.9 73.4L701 808.1 550.6 729c-12.1-6.4-25.3-9.5-38.6-9.5s-26.5 3.2-38.6 9.5l-150.5 79.1 28.7-167.6c4.6-26.9-4.3-54.4-23.9-73.4L206.1 448.4 374.3 424c27-3.9 50.4-20.9 62.5-45.4L512 226.2l75.2 152.5c12.1 24.5 35.4 41.5 62.5 45.4l168.2 24.4-121.7 118.6z" p-id="5169" fill="#515151"></path></svg>