<!-- Generator: Adobe Illustrator 22.0.1, SVG Export Plug-In  -->
<svg version="1.1"
	 xmlns="http://www.w3.org/2000/svg" xmlns:xlink="http://www.w3.org/1999/xlink" xmlns:a="http://ns.adobe.com/AdobeSVGViewerExtensions/3.0/"
	 x="0px" y="0px" width="54.8px" height="54.8px" viewBox="0 0 54.8 54.8" style="enable-background:new 0 0 54.8 54.8;"
	 xml:space="preserve">
<style type="text/css">
	.st0{fill-rule:evenodd;clip-rule:evenodd;fill:#D51423;}
</style>
<defs>
</defs>
<g>
	<path class="st0" d="M27.4,0C12.3,0,0,12.3,0,27.4c0,15.1,12.3,27.4,27.4,27.4c15.1,0,27.4-12.3,27.4-27.4C54.8,12.2,42.5,0,27.4,0
		L27.4,0z M27.4,51.7C14,51.7,3.1,40.8,3.1,27.4C3.1,14,14,3.1,27.4,3.1c13.4,0,24.3,10.9,24.3,24.3C51.7,40.8,40.8,51.7,27.4,51.7
		L27.4,51.7z"/>
	<path class="st0" d="M38.5,18.5L18.6,38.5C18,39,17,39,16.3,38.5c-0.6-0.6-0.6-1.6,0-2.2l19.9-19.9c0.6-0.6,1.6-0.6,2.2,0
		C39.1,16.9,39.1,17.9,38.5,18.5L38.5,18.5z"/>
	<path class="st0" d="M16.3,18.5l19.9,19.9c0.6,0.6,1.6,0.6,2.2,0c0.6-0.6,0.6-1.6,0-2.2L18.5,16.3c-0.6-0.6-1.6-0.6-2.2,0
		C15.7,16.9,15.7,17.9,16.3,18.5L16.3,18.5z"/>
</g>
</svg>
