<svg t="1713425865778" class="icon" viewBox="0 0 1024 1024" version="1.1" xmlns="http://www.w3.org/2000/svg" p-id="7780" width="200" height="200"><path d="M739.095893 979.456a97.848889 97.848889 0 0 1-43.576889-11.548444l-205.198222-106.552889-206.392889 106.382222c-13.084444 7.168-28.046222 11.036444-43.349333 11.036444-19.911111 0-39.310222-6.542222-55.068444-18.773333a101.432889 101.432889 0 0 1-36.864-96.938667l42.268444-227.384889L29.008782 478.890667A106.211556 106.211556 0 0 1 3.807004 378.88l0.398223-1.024c11.776-36.579556 40.96-62.293333 76.231111-67.128889l224.938666-42.496L406.295893 55.296C422.509227 21.731556 455.504782 0 490.320782 0c36.408889 0 70.257778 22.471111 84.366222 55.978667l100.636445 212.138666 224.824889 40.789334a92.728889 92.728889 0 0 1 74.979555 67.982222 100.807111 100.807111 0 0 1-23.438222 100.408889l-0.568889 0.568889-161.336889 157.809777 40.789334 227.783112a99.669333 99.669333 0 0 1-36.465778 96.142222 84.593778 84.593778 0 0 1-54.897778 19.911111h-0.113778z" fill="#FF7712" p-id="7781"></path></svg>