<!-- Generator: Adobe Illustrator 22.0.1, SVG Export Plug-In  -->
<svg version="1.1"
	 xmlns="http://www.w3.org/2000/svg" xmlns:xlink="http://www.w3.org/1999/xlink" xmlns:a="http://ns.adobe.com/AdobeSVGViewerExtensions/3.0/"
	 x="0px" y="0px" width="144.6px" height="143.7px" viewBox="0 0 144.6 143.7" style="enable-background:new 0 0 144.6 143.7;"
	 xml:space="preserve">
<style type="text/css">
	.st0{fill:#999999;}
</style>
<defs>
</defs>
<path class="st0" d="M63.4,3.5L3.5,63.4c-4.7,4.7-4.7,12.3,0,16.9l59.9,59.9c4.7,4.7,12.3,4.7,16.9,0c4.7-4.7,4.7-12.3,0-16.9
	L40.9,83.8h91.7c6.6,0,12-5.4,12-12c0-6.6-5.4-12-12-12H40.9l39.4-39.4c2.3-2.3,3.5-5.4,3.5-8.5c0-3.1-1.2-6.1-3.5-8.5
	C75.6-1.2,68-1.2,63.4,3.5L63.4,3.5z M63.4,3.5"/>
</svg>
