<?xml version="1.0" standalone="no"?><!DOCTYPE svg PUBLIC "-//W3C//DTD SVG 1.1//EN" "http://www.w3.org/Graphics/SVG/1.1/DTD/svg11.dtd"><svg t="1709888524254" class="icon" viewBox="0 0 1024 1024" version="1.1" xmlns="http://www.w3.org/2000/svg" p-id="4261" xmlns:xlink="http://www.w3.org/1999/xlink" width="200" height="200"><path d="M679.039688 749.379825a29.25665 29.25665 0 0 1 46.225506-35.927166l204.796548 263.309847a29.25665 29.25665 0 0 1-46.225507 35.927166l-204.796547-263.309847zM482.727568 789.929541C264.589988 789.929541 87.762798 613.102351 87.762798 394.964771S264.589988 0 482.727568 0 877.692339 176.827191 877.692339 394.964771 700.865148 789.929541 482.727568 789.929541z m0-58.513299C668.53655 731.416242 819.17904 580.773753 819.17904 394.964771S668.53655 58.513299 482.727568 58.513299 146.276097 209.155789 146.276097 394.964771 296.918586 731.416242 482.727568 731.416242z" fill="#7F7F7F" p-id="4262"></path></svg>