<!-- Generator: Adobe Illustrator 22.0.1, SVG Export Plug-In  -->
<svg version="1.1"
	 xmlns="http://www.w3.org/2000/svg" xmlns:xlink="http://www.w3.org/1999/xlink" xmlns:a="http://ns.adobe.com/AdobeSVGViewerExtensions/3.0/"
	 x="0px" y="0px" width="141.3px" height="141.4px" viewBox="0 0 141.3 141.4" style="enable-background:new 0 0 141.3 141.4;"
	 xml:space="preserve">
<style type="text/css">
	.st0{clip-path:url(#SVGID_2_);fill:#6CB438;}
	.st1{fill:#6CB438;}
	.st2{clip-path:url(#SVGID_4_);fill:#6CB438;}
</style>
<defs>
</defs>
<g>
	<g>
		<defs>
			<rect id="SVGID_1_" x="0" width="141.3" height="141.4"/>
		</defs>
		<clipPath id="SVGID_2_">
			<use xlink:href="#SVGID_1_"  style="overflow:visible;"/>
		</clipPath>
		<path class="st0" d="M70.6,8.9c34.1,0,61.7,27.6,61.7,61.8c0,34.1-27.6,61.7-61.7,61.7c-34.1,0-61.8-27.6-61.8-61.7
			C8.8,36.6,36.5,8.9,70.6,8.9 M70.6,0.1C31.6,0.1,0,31.7,0,70.7c0,39,31.6,70.6,70.6,70.6c39,0,70.6-31.6,70.6-70.6
			C141.1,31.7,109.5,0.1,70.6,0.1L70.6,0.1z M70.6,0.1"/>
	</g>
	<path class="st1" d="M105.9,50c-1.7-1.7-4.5-1.7-6.2,0L61.7,87.3l-20-20.2c-1.1-1.2-2.7-1.6-4.3-1.2c-1.5,0.4-2.8,1.6-3.2,3.1
		c-0.4,1.5,0,3.2,1.1,4.3l20.5,20.3l6.3,6.3l43.8-43.6c0.8-0.8,1.3-2,1.3-3.1C107.2,52,106.7,50.8,105.9,50L105.9,50z M105.9,50"/>
</g>
</svg>
