<?xml version="1.0" standalone="no"?><!DOCTYPE svg PUBLIC "-//W3C//DTD SVG 1.1//EN" "http://www.w3.org/Graphics/SVG/1.1/DTD/svg11.dtd"><svg t="1531473256950" class="icon" style="" viewBox="0 0 1024 1024" version="1.1" xmlns="http://www.w3.org/2000/svg" p-id="9121" xmlns:xlink="http://www.w3.org/1999/xlink" width="26" height="26"><defs><style type="text/css"></style></defs><path d="M512 909.5c-219.16 0-397.49-178.32-397.49-397.5S292.84 114.5 512 114.5 909.49 292.83 909.49 512 731.16 909.5 512 909.5z m0-731.38C327.9 178.11 178.12 327.9 178.12 512S327.9 845.89 512 845.89 845.88 696.12 845.88 512 696.1 178.11 512 178.11z" p-id="9122" fill="#515151"></path><path d="M699.67 606a31.53 31.53 0 0 1-9.86-1.58L502.14 543.1a31.79 31.79 0 0 1-21.94-30.23v-236a31.8 31.8 0 0 1 63.61 0V489.8l165.72 54.12a31.8 31.8 0 0 1-9.86 62z" p-id="9123" fill="#515151"></path></svg>