<!-- Generator: Adobe Illustrator 22.0.1, SVG Export Plug-In  -->
<svg version="1.1"
	 xmlns="http://www.w3.org/2000/svg" xmlns:xlink="http://www.w3.org/1999/xlink" xmlns:a="http://ns.adobe.com/AdobeSVGViewerExtensions/3.0/"
	 x="0px" y="0px" width="146.9px" height="143px" viewBox="0 0 146.9 143" style="enable-background:new 0 0 146.9 143;"
	 xml:space="preserve">
<style type="text/css">
	.st0{fill:#CCCCCC;}
</style>
<defs>
</defs>
<g>
	<g>
		<path class="st0" d="M146.9,87.9v46.5c0,4.7-3.8,8.5-8.5,8.5H8.5c-4.7,0-8.5-3.8-8.5-8.5V87.9c0-4.7,3.8-8.5,8.5-8.5
			c4.7,0,8.5,3.8,8.5,8.5v38h112.8v-38c0-4.7,3.8-8.5,8.5-8.5C143.1,79.4,146.9,83.2,146.9,87.9L146.9,87.9z M67.4,98.7
			c1.6,1.6,3.8,2.6,6.1,2.6c2.3,0,4.5-0.9,6.1-2.6l34.1-34.8c3.3-3.4,3.2-8.8-0.1-12.1c-3.4-3.3-8.8-3.2-12.1,0.1L82,71.7V8.5
			C82,3.8,78.2,0,73.5,0c-4.7,0-8.5,3.8-8.5,8.5v63.2L45.5,51.9c-3.3-3.4-8.7-3.4-12.1-0.1c-3.4,3.3-3.4,8.7-0.1,12.1L67.4,98.7z
			 M67.4,98.7"/>
	</g>
</g>
</svg>
