<!-- Generator: Adobe Illustrator 22.0.1, SVG Export Plug-In  -->
<svg version="1.1"
	 xmlns="http://www.w3.org/2000/svg" xmlns:xlink="http://www.w3.org/1999/xlink" xmlns:a="http://ns.adobe.com/AdobeSVGViewerExtensions/3.0/"
	 x="0px" y="0px" width="143.8px" height="107.9px" viewBox="0 0 143.8 107.9" style="enable-background:new 0 0 143.8 107.9;"
	 xml:space="preserve">
<style type="text/css">
	.st0{fill:#CCCCCC;}
</style>
<defs>
</defs>
<path id="XMLID_1_" class="st0" d="M134.8,107.9H9c-5,0-9-4-9-9V9c0-5,4-9,9-9h125.7c5,0,9,4,9,9v89.8
	C143.8,103.8,139.8,107.9,134.8,107.9L134.8,107.9z M124.7,19.1c-1.7-1.8-4.6-1.8-6.4,0l-15.6,15.4L80.9,56.4v-0.1
	c-2.4,2.3-5.7,3.8-9.3,3.8c-3.4,0-6.3-1.4-8.7-3.4v0.2L33.5,27.5l0.2-0.1l-8.3-8.3c-1.8-1.8-4.6-1.8-6.4,0c-1.8,1.8-1.8,4.6,0,6.4
	L47.5,54c0,0,0,0,0,0.1L19.2,82.3c-1.7,1.7-2,4.4-0.4,6.2c1.7,2,4.8,2.1,6.6,0.3l28.4-28.4c0,0,0,0,0.1,0l7.4,7.4
	c0.4,0.4,0.8,0.8,1.2,1.2l0.5,0.5v-0.1c2.3,1.9,5.2,3,8.4,3c3.7,0,7.1-1.5,9.5-4v0.3l8.6-8.5c0,0,0,0,0.1,0l28.5,28.5
	c1.8,1.8,4.6,1.8,6.4,0c1.8-1.8,1.8-4.6,0-6.4L96,53.9c0,0,0,0,0-0.1l28.8-28.5C126.5,23.7,126.5,20.8,124.7,19.1L124.7,19.1z
	 M124.7,19.1"/>
</svg>
