<!-- Generator: Adobe Illustrator 22.0.1, SVG Export Plug-In  -->
<svg version="1.1"
	 xmlns="http://www.w3.org/2000/svg" xmlns:xlink="http://www.w3.org/1999/xlink" xmlns:a="http://ns.adobe.com/AdobeSVGViewerExtensions/3.0/"
	 x="0px" y="0px" width="372px" height="372px" viewBox="0 0 372 372" style="enable-background:new 0 0 372 372;"
	 xml:space="preserve">
<style type="text/css">
	.st0{fill:#FFFFFF;}
</style>
<defs>
</defs>
<g>
	<rect class="st0" width="372" height="372"/>
	<rect x="12" y="12" width="84" height="12"/>
	<rect x="108" y="12" width="12" height="12"/>
	<rect x="144" y="12" width="12" height="12"/>
	<rect x="168" y="12" width="36" height="12"/>
	<rect x="240" y="12" width="24" height="12"/>
	<rect x="276" y="12" width="84" height="12"/>
	<rect x="12" y="24" width="12" height="12"/>
	<rect x="84" y="24" width="12" height="12"/>
	<rect x="120" y="24" width="24" height="12"/>
	<rect x="168" y="24" width="36" height="12"/>
	<rect x="216" y="24" width="12" height="12"/>
	<rect x="252" y="24" width="12" height="12"/>
	<rect x="276" y="24" width="12" height="12"/>
	<rect x="348" y="24" width="12" height="12"/>
	<rect x="12" y="36" width="12" height="12"/>
	<rect x="36" y="36" width="36" height="12"/>
	<rect x="84" y="36" width="12" height="12"/>
	<rect x="108" y="36" width="48" height="12"/>
	<rect x="168" y="36" width="12" height="12"/>
	<rect x="228" y="36" width="12" height="12"/>
	<rect x="276" y="36" width="12" height="12"/>
	<rect x="300" y="36" width="36" height="12"/>
	<rect x="348" y="36" width="12" height="12"/>
	<rect x="12" y="48" width="12" height="12"/>
	<rect x="36" y="48" width="36" height="12"/>
	<rect x="84" y="48" width="12" height="12"/>
	<rect x="168" y="48" width="24" height="12"/>
	<rect x="216" y="48" width="12" height="12"/>
	<rect x="252" y="48" width="12" height="12"/>
	<rect x="276" y="48" width="12" height="12"/>
	<rect x="300" y="48" width="36" height="12"/>
	<rect x="348" y="48" width="12" height="12"/>
	<rect x="12" y="60" width="12" height="12"/>
	<rect x="36" y="60" width="36" height="12"/>
	<rect x="84" y="60" width="12" height="12"/>
	<rect x="108" y="60" width="12" height="12"/>
	<rect x="144" y="60" width="12" height="12"/>
	<rect x="168" y="60" width="12" height="12"/>
	<rect x="192" y="60" width="36" height="12"/>
	<rect x="240" y="60" width="12" height="12"/>
	<rect x="276" y="60" width="12" height="12"/>
	<rect x="300" y="60" width="36" height="12"/>
	<rect x="348" y="60" width="12" height="12"/>
	<rect x="12" y="72" width="12" height="12"/>
	<rect x="84" y="72" width="12" height="12"/>
	<rect x="132" y="72" width="24" height="12"/>
	<rect x="168" y="72" width="12" height="12"/>
	<rect x="204" y="72" width="24" height="12"/>
	<rect x="252" y="72" width="12" height="12"/>
	<rect x="276" y="72" width="12" height="12"/>
	<rect x="348" y="72" width="12" height="12"/>
	<rect x="12" y="84" width="84" height="12"/>
	<rect x="108" y="84" width="12" height="12"/>
	<rect x="132" y="84" width="12" height="12"/>
	<rect x="156" y="84" width="12" height="12"/>
	<rect x="180" y="84" width="12" height="12"/>
	<rect x="204" y="84" width="12" height="12"/>
	<rect x="228" y="84" width="12" height="12"/>
	<rect x="252" y="84" width="12" height="12"/>
	<rect x="276" y="84" width="84" height="12"/>
	<rect x="108" y="96" width="12" height="12"/>
	<rect x="132" y="96" width="12" height="12"/>
	<rect x="168" y="96" width="12" height="12"/>
	<rect x="216" y="96" width="48" height="12"/>
	<rect x="72" y="108" width="24" height="12"/>
	<rect x="132" y="108" width="12" height="12"/>
	<rect x="156" y="108" width="12" height="12"/>
	<rect x="192" y="108" width="12" height="12"/>
	<rect x="276" y="108" width="12" height="12"/>
	<rect x="300" y="108" width="12" height="12"/>
	<rect x="324" y="108" width="12" height="12"/>
	<rect x="348" y="108" width="12" height="12"/>
	<rect x="12" y="120" width="24" height="12"/>
	<rect x="132" y="120" width="24" height="12"/>
	<rect x="180" y="120" width="12" height="12"/>
	<rect x="228" y="120" width="12" height="12"/>
	<rect x="288" y="120" width="36" height="12"/>
	<rect x="336" y="120" width="12" height="12"/>
	<rect x="12" y="132" width="24" height="12"/>
	<rect x="48" y="132" width="24" height="12"/>
	<rect x="84" y="132" width="12" height="12"/>
	<rect x="108" y="132" width="60" height="12"/>
	<rect x="192" y="132" width="12" height="12"/>
	<rect x="216" y="132" width="36" height="12"/>
	<rect x="276" y="132" width="12" height="12"/>
	<rect x="324" y="132" width="12" height="12"/>
	<rect x="24" y="144" width="12" height="12"/>
	<rect x="60" y="144" width="12" height="12"/>
	<rect x="96" y="144" width="12" height="12"/>
	<rect x="120" y="144" width="12" height="12"/>
	<rect x="156" y="144" width="12" height="12"/>
	<rect x="180" y="144" width="12" height="12"/>
	<rect x="204" y="144" width="24" height="12"/>
	<rect x="240" y="144" width="60" height="12"/>
	<rect x="312" y="144" width="12" height="12"/>
	<rect x="12" y="156" width="12" height="12"/>
	<rect x="36" y="156" width="24" height="12"/>
	<rect x="84" y="156" width="12" height="12"/>
	<rect x="108" y="156" width="48" height="12"/>
	<rect x="180" y="156" width="24" height="12"/>
	<rect x="216" y="156" width="12" height="12"/>
	<rect x="264" y="156" width="36" height="12"/>
	<rect x="312" y="156" width="12" height="12"/>
	<rect x="336" y="156" width="12" height="12"/>
	<rect x="24" y="168" width="12" height="12"/>
	<rect x="48" y="168" width="36" height="12"/>
	<rect x="120" y="168" width="24" height="12"/>
	<rect x="168" y="168" width="12" height="12"/>
	<rect x="240" y="168" width="24" height="12"/>
	<rect x="276" y="168" width="12" height="12"/>
	<rect x="300" y="168" width="24" height="12"/>
	<rect x="348" y="168" width="12" height="12"/>
	<rect x="12" y="180" width="12" height="12"/>
	<rect x="36" y="180" width="24" height="12"/>
	<rect x="84" y="180" width="12" height="12"/>
	<rect x="108" y="180" width="24" height="12"/>
	<rect x="252" y="180" width="12" height="12"/>
	<rect x="276" y="180" width="12" height="12"/>
	<rect x="12" y="192" width="12" height="12"/>
	<rect x="60" y="192" width="12" height="12"/>
	<rect x="96" y="192" width="12" height="12"/>
	<rect x="120" y="192" width="12" height="12"/>
	<rect x="144" y="192" width="36" height="12"/>
	<rect x="240" y="192" width="12" height="12"/>
	<rect x="312" y="192" width="36" height="12"/>
	<rect x="12" y="204" width="12" height="12"/>
	<rect x="36" y="204" width="12" height="12"/>
	<rect x="72" y="204" width="24" height="12"/>
	<rect x="132" y="204" width="36" height="12"/>
	<rect x="192" y="204" width="12" height="12"/>
	<rect x="312" y="204" width="24" height="12"/>
	<rect x="348" y="204" width="12" height="12"/>
	<rect x="12" y="216" width="36" height="12"/>
	<rect x="96" y="216" width="12" height="12"/>
	<rect x="144" y="216" width="12" height="12"/>
	<rect x="216" y="216" width="24" height="12"/>
	<rect x="276" y="216" width="12" height="12"/>
	<rect x="300" y="216" width="12" height="12"/>
	<rect x="348" y="216" width="12" height="12"/>
	<rect x="12" y="228" width="24" height="12"/>
	<rect x="48" y="228" width="12" height="12"/>
	<rect x="72" y="228" width="36" height="12"/>
	<rect x="120" y="228" width="12" height="12"/>
	<rect x="144" y="228" width="24" height="12"/>
	<rect x="180" y="228" width="36" height="12"/>
	<rect x="228" y="228" width="36" height="12"/>
	<rect x="348" y="228" width="12" height="12"/>
	<rect x="12" y="240" width="12" height="12"/>
	<rect x="48" y="240" width="12" height="12"/>
	<rect x="72" y="240" width="12" height="12"/>
	<rect x="108" y="240" width="12" height="12"/>
	<rect x="132" y="240" width="12" height="12"/>
	<rect x="216" y="240" width="12" height="12"/>
	<rect x="252" y="240" width="48" height="12"/>
	<rect x="312" y="240" width="12" height="12"/>
	<rect x="336" y="240" width="12" height="12"/>
	<rect x="12" y="252" width="12" height="12"/>
	<rect x="72" y="252" width="36" height="12"/>
	<rect x="144" y="252" width="24" height="12"/>
	<rect x="180" y="252" width="12" height="12"/>
	<rect x="216" y="252" width="24" height="12"/>
	<rect x="252" y="252" width="60" height="12"/>
	<rect x="324" y="252" width="12" height="12"/>
	<rect x="108" y="264" width="24" height="12"/>
	<rect x="156" y="264" width="12" height="12"/>
	<rect x="180" y="264" width="12" height="12"/>
	<rect x="240" y="264" width="24" height="12"/>
	<rect x="300" y="264" width="36" height="12"/>
	<rect x="12" y="276" width="84" height="12"/>
	<rect x="132" y="276" width="12" height="12"/>
	<rect x="156" y="276" width="36" height="12"/>
	<rect x="204" y="276" width="12" height="12"/>
	<rect x="240" y="276" width="24" height="12"/>
	<rect x="276" y="276" width="12" height="12"/>
	<rect x="300" y="276" width="12" height="12"/>
	<rect x="12" y="288" width="12" height="12"/>
	<rect x="84" y="288" width="12" height="12"/>
	<rect x="108" y="288" width="48" height="12"/>
	<rect x="180" y="288" width="24" height="12"/>
	<rect x="240" y="288" width="24" height="12"/>
	<rect x="300" y="288" width="24" height="12"/>
	<rect x="348" y="288" width="12" height="12"/>
	<rect x="12" y="300" width="12" height="12"/>
	<rect x="36" y="300" width="36" height="12"/>
	<rect x="84" y="300" width="12" height="12"/>
	<rect x="144" y="300" width="36" height="12"/>
	<rect x="192" y="300" width="120" height="12"/>
	<rect x="336" y="300" width="24" height="12"/>
	<rect x="12" y="312" width="12" height="12"/>
	<rect x="36" y="312" width="36" height="12"/>
	<rect x="84" y="312" width="12" height="12"/>
	<rect x="132" y="312" width="36" height="12"/>
	<rect x="240" y="312" width="36" height="12"/>
	<rect x="288" y="312" width="12" height="12"/>
	<rect x="312" y="312" width="36" height="12"/>
	<rect x="12" y="324" width="12" height="12"/>
	<rect x="36" y="324" width="36" height="12"/>
	<rect x="84" y="324" width="12" height="12"/>
	<rect x="168" y="324" width="12" height="12"/>
	<rect x="204" y="324" width="24" height="12"/>
	<rect x="240" y="324" width="12" height="12"/>
	<rect x="276" y="324" width="12" height="12"/>
	<rect x="300" y="324" width="48" height="12"/>
	<rect x="12" y="336" width="12" height="12"/>
	<rect x="84" y="336" width="12" height="12"/>
	<rect x="168" y="336" width="12" height="12"/>
	<rect x="216" y="336" width="36" height="12"/>
	<rect x="264" y="336" width="24" height="12"/>
	<rect x="300" y="336" width="36" height="12"/>
	<rect x="348" y="336" width="12" height="12"/>
	<rect x="12" y="348" width="84" height="12"/>
	<rect x="132" y="348" width="36" height="12"/>
	<rect x="192" y="348" width="12" height="12"/>
	<rect x="216" y="348" width="36" height="12"/>
	<rect x="300" y="348" width="12" height="12"/>
	<rect x="324" y="348" width="12" height="12"/>
</g>
</svg>
