<!-- Generator: Adobe Illustrator 22.0.1, SVG Export Plug-In  -->
<svg version="1.1"
	 xmlns="http://www.w3.org/2000/svg" xmlns:xlink="http://www.w3.org/1999/xlink" xmlns:a="http://ns.adobe.com/AdobeSVGViewerExtensions/3.0/"
	 x="0px" y="0px" width="178.5px" height="162.8px" viewBox="0 0 178.5 162.8" style="enable-background:new 0 0 178.5 162.8;"
	 xml:space="preserve">
<style type="text/css">
	.st0{fill:#CCCCCC;}
</style>
<defs>
</defs>
<path class="st0" d="M59.9,129c2.3,0,4.5,0.4,6.5,1.3c2.1,0.8,3.8,2,5.3,3.5c1.5,1.5,2.7,3.3,3.6,5.3c0.9,2,1.4,4.2,1.4,6.5
	c0,2.3-0.5,4.5-1.4,6.5c-0.9,2.1-2.1,3.8-3.6,5.3c-1.5,1.5-3.3,2.7-5.3,3.6c-2,0.9-4.2,1.4-6.5,1.4c-2.4,0-4.6-0.5-6.7-1.4
	c-2.1-0.9-3.8-2.1-5.3-3.6c-1.5-1.5-2.7-3.3-3.6-5.3c-0.9-2.1-1.4-4.2-1.4-6.5c0-2.3,0.5-4.5,1.4-6.5c0.9-2.1,2.1-3.8,3.6-5.3
	c1.5-1.5,3.3-2.7,5.3-3.5C55.2,129.4,57.5,129,59.9,129L59.9,129z M135.1,129.3c2.3,0,4.5,0.4,6.6,1.3c2.1,0.8,3.9,2,5.4,3.5
	c1.5,1.5,2.7,3.3,3.6,5.3c0.9,2.1,1.4,4.2,1.4,6.5c0,2.3-0.5,4.5-1.4,6.5c-0.9,2-2.1,3.8-3.6,5.3c-1.5,1.5-3.3,2.7-5.4,3.6
	c-2.1,0.9-4.3,1.4-6.6,1.4c-2.3,0-4.5-0.5-6.5-1.4c-2.1-0.9-3.8-2.1-5.3-3.6c-1.5-1.5-2.7-3.3-3.6-5.3c-0.9-2.1-1.4-4.2-1.4-6.5
	c0-2.3,0.5-4.5,1.4-6.5c0.9-2.1,2.1-3.8,3.6-5.3c1.5-1.5,3.3-2.7,5.3-3.5C130.7,129.8,132.8,129.3,135.1,129.3L135.1,129.3z
	 M165.5,26.6c3.4,0,6,0.5,7.9,1.4c1.9,0.9,3.2,2,4,3.3c0.8,1.3,1.1,2.7,1.1,4.3c-0.1,1.5-0.3,2.8-0.6,3.9c-0.4,1.1-1.1,3.3-2.4,6.7
	c-1.2,3.4-2.5,7.1-3.9,11.1c-1.4,4-2.8,8-4.2,12c-1.4,4-2.5,7.1-3.3,9.4c-1.6,4.8-3.5,8.2-5.9,10c-2.4,1.9-5.3,2.8-8.8,2.8h-95
	l2.5,16.3h91.3c5.8,0,8.7,2.5,8.7,7.4c0,2.4-0.6,4.5-1.7,6.2c-1.1,1.7-3.4,2.6-6.8,2.6H53.7c-2.4,0-4.4-0.5-6.1-1.6
	c-1.6-1.1-3-2.5-4.1-4.3c-1.1-1.7-2-3.6-2.6-5.7c-0.7-2.1-1.2-4-1.5-5.8c-0.1-0.7-0.5-2.5-1-5.2c-0.5-2.8-1.2-6.2-2-10.4
	c-0.8-4.2-1.7-8.8-2.6-13.9c-1-5.1-1.9-10.3-2.9-15.5C28.6,49.5,26,35.9,23.2,21H9.6c-1.8,0-3.3-0.5-4.5-1.4c-1.2-0.9-2.2-2-3-3.3
	c-0.8-1.3-1.3-2.6-1.6-4.1C0.2,10.9,0,9.5,0,8.3c0-2.4,0.8-4.4,2.4-6C4.1,0.8,6.3,0,9,0h18.3c2.4,0,4.3,0.4,5.8,1.1
	c1.4,0.7,2.6,1.6,3.4,2.7C37.4,4.9,38,6,38.3,7.2c0.4,1.2,0.7,2.2,0.9,3.1c0.2,1,0.5,2.3,0.7,4.1c0.2,1.7,0.5,3.5,0.7,5.3
	c0.4,2.2,0.7,4.5,1.1,6.9H165.5z"/>
</svg>
