<!-- Generator: Adobe Illustrator 22.0.1, SVG Export Plug-In  -->
<svg version="1.1"
	 xmlns="http://www.w3.org/2000/svg" xmlns:xlink="http://www.w3.org/1999/xlink" xmlns:a="http://ns.adobe.com/AdobeSVGViewerExtensions/3.0/"
	 x="0px" y="0px" width="155.1px" height="158.6px" viewBox="0 0 155.1 158.6" style="enable-background:new 0 0 155.1 158.6;"
	 xml:space="preserve">
<style type="text/css">
	.st0{fill:#FFFFFF;}
</style>
<defs>
</defs>
<g>
	<g>
		<path class="st0" d="M82,39.5c7.3,1.9,14.3-1.6,15.7-7.6c1.4-6.1-3.5-12.5-10.8-14.4c-7.3-1.9-14.3,1.6-15.7,7.6
			C69.9,31.2,74.7,37.6,82,39.5L82,39.5z M150.4,49.6c-1.5-4.3-3.3-8.5-5.4-12.4c-6-11.2-14.4-20.4-24.2-27.3
			c-1.7-1.2-5.1-3.1-5.2-3.2c0,0,0,0-0.1,0c-18-10-27.3-7.8-27.1-0.3c0.1,5.6,5.1,7,9.6,9.2c15.1,7.4,23.2,18.8,19.1,28
			c-3.8,8.5-17.9,11.5-32.5,6.1c-15-5.5-34.6-18.7-37.2-3.8C45,58.4,63.8,58.8,83.3,79.3c8.4,8.8,10.5,24.1,5.6,36.4
			c-10.5,18.5-40.7,14.2-54.4-0.9c-15.7-17.4-13.7-35.5-12.9-40c1.9-9,5.4-16.3,8-20.8c2.7-4.9,4.1-8.1,4.1-12.1
			c-0.1-6.3-4.4-10.5-10.4-10.9c-7.2-0.4-12.5,4.2-15.6,11C0.4,58-2,76.4,1.8,94.6c0.1,0.3,0.1,0.7,0.2,1c0.3,1.8,0.8,3.5,1.3,5.2
			l0,0c0,0,0.7,2.9,2.5,6.9c0.6,1.4,1.1,2.9,1.7,4.3c0,0,0,0,0-0.1c0,0,0,0.1,0.1,0.2c16.9,37.5,58.6,56,96.5,41.5
			C144.2,138.3,165,91.7,150.4,49.6L150.4,49.6z M150.4,49.6"/>
	</g>
</g>
</svg>
