<svg width="18" height="18" viewBox="0 0 18 18" fill="none" xmlns="http://www.w3.org/2000/svg">
<path d="M9 2.625L6.375 6.375L3 7.125L2.25 7.875L4.875 10.5L4.5 14.25L4.875 15.375L9 13.5L12 15H13.5L12.75 10.5L15.375 8.25V7.125L11.25 6.375L9 2.625Z" fill="#FDB344"/>
<path d="M12.4488 15.75C12.2334 15.75 11.9749 15.6811 11.7509 15.5777L8.99376 14.1906L6.21942 15.5605C6.00402 15.6725 5.76278 15.7328 5.52153 15.7328C5.19412 15.7328 4.89257 15.6208 4.63409 15.4485H4.61686C4.16021 15.0952 3.91896 14.5094 4.02236 13.958L4.59101 11.0375L2.46287 9.00431C2.05792 8.59939 1.91145 8.00495 2.05792 7.4708V7.45357C2.24747 6.88497 2.70411 6.48006 3.28138 6.40252L6.27973 5.85115L7.64105 3.09429C7.89953 2.58599 8.43372 2.25 9.00237 2.25C9.2867 2.25 9.57103 2.32754 9.81227 2.49123C10.0535 2.65491 10.2603 2.87029 10.3637 3.12013L11.7078 5.84253L14.7234 6.36806C15.292 6.4456 15.7745 6.87636 15.921 7.41911C16.0933 7.97048 15.9468 8.56493 15.5419 8.96985L15.5246 8.98708L13.3707 11.0203L13.9135 13.958C14.0082 14.5266 13.7928 15.1039 13.319 15.4399C13.0949 15.6294 12.7675 15.75 12.4488 15.75ZM12.2592 14.518C12.354 14.5611 12.4229 14.5697 12.4488 14.5697C12.5177 14.5697 12.5694 14.5525 12.6125 14.518L12.6297 14.5008C12.7503 14.406 12.802 14.2854 12.7762 14.1476L12.1127 10.6067L12.3454 10.3741L14.7234 8.1514C14.8181 8.03941 14.8612 7.91018 14.8009 7.77234V7.74649C14.7751 7.63449 14.6631 7.53111 14.5424 7.51388H14.5166L10.9065 6.88497L9.29532 3.60258V3.58535C9.25224 3.49059 9.123 3.41305 9.00237 3.41305C8.88175 3.41305 8.76113 3.49059 8.6922 3.6112L7.0724 6.87636L3.4537 7.53973C3.28138 7.56557 3.21246 7.68618 3.16938 7.78095C3.14353 7.91879 3.18661 8.07387 3.27277 8.16863L5.90063 10.6326L5.79724 10.96L5.17689 14.1648C5.15104 14.2854 5.21997 14.4319 5.32336 14.518C5.37506 14.5611 5.44399 14.5869 5.51291 14.5869C5.56461 14.5869 5.62492 14.5697 5.67662 14.5439L5.69385 14.5266L8.99376 12.8984L12.2592 14.518Z" fill="#FDB344"/>
</svg>
