<?xml version="1.0" encoding="utf-8"?>
<!-- Generator: Adobe Illustrator 22.0.1, SVG Export Plug-In . SVG Version: 6.00 Build 0)  -->
<svg version="1.1" id="图层_1" xmlns="http://www.w3.org/2000/svg" xmlns:xlink="http://www.w3.org/1999/xlink" x="0px" y="0px"
	 viewBox="0 0 1675.2 466.2" style="enable-background:new 0 0 1675.2 466.2;" xml:space="preserve">
<style type="text/css">
	.st0{fill:#FFFFFF;}
</style>
<g>
	<path class="st0" d="M392.3,167.9c-1.3-19.4-14.6-33.2-32.1-35.1c-20.6-2.3-48.3-3.6-69.1-4.7c-1.5,1.9-1,3.1-2.6,5.6
		c-15,32.1-29.8,64.4-44.7,96.6l50.4,29.9c6.9,4.1,6.9,14.1,0,18.2l-87.9,52.1c-3,1.8-6.4,1.8-9.3,0.7
		c-13.8,31.3-27.2,63.3-64.3,79.5c4.7,1.1,6.8,1.9,8.8,2c70.7,2.1,141.4,0.9,211.8-5.9c24.4-2.4,37-14.7,39.3-39.1
		c2.5-26.1,5.5-52.4,5.2-78.6C397.5,248.8,395.1,208.3,392.3,167.9z"/>
	<path class="st0" d="M166.3,355.5c6.2-29-4.9-50.9-28.1-67.2c-29.2-20.5-61.8-29.1-97.4-25.9c-3.3,0.3-6.5,0.5-12.6,1
		c55.6-64.8,109.2-127.2,163.1-190c-11.4-5.2-18.8-3.9-25.5,3.6c-11.7,13.1-23.5,25.9-34.8,39.3c-5.2,6.2-11.1,8.7-19.2,9.1
		c-23,1.2-46,2.6-68.8,5.3c-18.7,2.2-32.1,17-34,34.8C1.8,233.8,1.3,302,9,370.3c2.1,18.5,12.9,31.4,31.2,35.1
		c25.4,5.1,51,5.9,76.2-1.2C141.6,397.3,160.4,383,166.3,355.5z"/>
	<path class="st0" d="M83.2,230.5c52,19.5,90.6,49.4,95.8,109.1c5.6-11.4,5.4-29,0-45.1c-9.1-27.5-25.2-50.3-48-68.1
		c-5.2-4.1-5.9-7.1-1.1-11.5c1.9-1.8,3.3-4,5-5.9c36.9-43,73.9-86,110.8-129.1c3.1-3.6,9.1-10.9,9.1-10.9s-12.3-8.8-17.9-9.1
		c-4.2-0.2-9.7,4-12.9,7.7c-42,48-83.8,96.3-125.6,144.6C93.4,218.1,88.6,224,83.2,230.5z"/>
	<path class="st0" d="M157.1,216.8c35.9,13.5,41,38.4,42.8,71.5c3.8-7.9,7.6-39.5,3.9-50.6c-3-9.3-5.5-15.2-13.7-23.7
		c-3.6-2.8-4.1-4.9-0.8-7.9c1.3-1.2,2.3-2.7,3.5-4.1c25.5-29.7,86.1-98.3,111.6-128.1c2.1-2.5,6.5-7.3,6.5-7.3s-8.8-6.4-12.6-6.6
		c-2.9-0.2-6.7,2.8-8.9,5.3c-29.1,33.2-92.9,105.5-121.8,138.8C164.2,208.2,160.8,212.3,157.1,216.8z"/>
	<path class="st0" d="M215.5,304.5l48.8-28.9c3.8-2.3,3.8-7.8,0-10.1l-28-16.6c-7.5,16.3-15,32.5-22.6,48.7
		c-1.1,2.4-2.2,4.9-3.3,7.3C211.9,305.5,213.8,305.5,215.5,304.5z"/>
</g>
<g>
	<g>
		<path id="XMLID_174_" class="st0" d="M1092.9,290.6v-27.2l148.1,0.1l43.5-28.1c4.2-2.7,6.3-5.6,6.3-8.5c0-1.2-0.5-2.1-1.6-2.8
			c-1.4-1-5-1.5-10.9-1.5h-140.4l0.1-27.7h152.5c12.4,0,22,2.4,28.7,7.2c7,5,10.4,11.6,10.4,19.7c0,10-5.7,18.8-17.2,26.3
			l-22.8,15.1h75.9v27.2l-89.7,0.1v26.3c0,12.4-3.5,22.6-10.6,30.6c-8.1,9.3-19,14-32.5,14H1046l-0.2-27.7l180,0.1
			c6.7,0,11.5-1.5,14.4-4.6c3.2-3.3,4.8-7.5,4.8-12.5v-26.5h-152.1L1092.9,290.6L1092.9,290.6z M1093.4,187.7l-0.2-16
			c-0.1-18.6,9.8-31.4,29.6-38.2l0.2-22.4h27.2v21.8h65.9v-21.5l27.3-0.3v21.8h66.9V111h27.2l-0.1,22.8
			c12.7,4.4,21.2,11.3,25.3,20.7c2.5,5.4,3.6,12.2,3.5,20.4l-0.1,12.7H1339v-11.9c0-10.6-6.8-15.9-20.4-15.9H1139
			c-11.9,0-17.9,5.3-17.9,15.9l-0.1,11.9h-27.6V187.7z"/>
		<path id="XMLID_169_" class="st0" d="M1394.9,290.7V138.1c0-8.7,2.4-15.4,7.1-20c4.7-4.7,10.3-7.1,16.8-7.1h37.4
			c8.7,0,15.4,2.4,20,7.1c4.8,5,7.2,10.3,7.2,15.7v73.1c0,7.1-2.3,12.8-6.9,17.2c3.7,2.2,5.8,4.7,6.3,7.6c0.4,2.1,0.6,4.7,0.6,7.9
			v50.6c0,7.5-2.5,13.7-7.5,18.4c-4.9,4.6-10.5,6.9-16.9,6.9h-19v-27.4h7.5c5.8,0,8.7-2.9,8.7-8.8v-32.1c0-6-2.6-9-7.9-9h-10.6
			v-27.7h9.8c5.8,0,8.7-2.6,8.7-7.9v-55.7c0-3-0.7-5.3-2.1-6.9c-1.3-1.4-3.8-2.1-7.5-2.1H1431c-3.7,0-6.3,0.9-7.7,2.6
			c-0.8,1-1.2,2.9-1.2,5.9v144.1h-27.2L1394.9,290.7L1394.9,290.7z M1489.8,361.2v-26.5c8.5-0.2,16.2-4.2,22.9-11.9
			c6-6.9,10.1-18.6,12.2-35.3c0.6-5.1,1.2-12.4,1.9-21.9h-35v-27.2h174v27.2h-32.5v56.6c0,4.4,0.8,7.5,2.4,9.1
			c1.4,1.4,4.4,2.1,9,2.1h22.4v27.2h-37.2c-6.3,0-11.7-2.4-16.3-7.1c-4.9-5.1-7.4-11.8-7.4-20.2v-67.8h-52.7
			c-2.2,20.3-4.4,34.9-6.6,43.8c-5.5,21.8-15.5,36.4-29.9,43.8C1508.2,357.8,1499.1,360.5,1489.8,361.2z M1491.7,173.3v-22.5
			c0-6.7,2.8-12.9,8.5-18.7c6.7-6.7,16.1-10,28.2-10h36.6v-10.3h27.1v10.3h35.2c11.6,0,20.5,2.7,26.9,8.2
			c7.2,6.2,10.9,14.7,10.9,25.4v17.5h-26.6v-9c0-4.1-1.4-7.6-4.1-10.4c-2.6-2.7-6.1-4.1-10.6-4.1h-90c-5.1,0-8.8,1.3-11,4
			c-2.6,3-3.8,6.2-3.8,9.6v10H1491.7z M1492.1,217.1v-27.7h173v27.7H1492.1z"/>
		<rect id="XMLID_168_" x="1309.2" y="263.4" class="st0" width="110.6" height="27"/>
		<rect id="XMLID_167_" x="1394.9" y="334.7" class="st0" width="96" height="27"/>
		<rect id="XMLID_166_" x="1394.9" y="301.4" class="st0" width="27" height="59.9"/>
	</g>
	<path class="st0" d="M493,191.4v-26c6.5-0.8,10.8-2.2,13.1-4.3c2.1-1.8,6.5-10.3,13.4-25.5c3.8-8.5,7.4-14.5,10.9-17.9
		c4.3-4.2,9.6-6.3,16-6.3h24.4c6.6,0,11.9,2.3,16,6.7c3.3,3.7,8.4,13.5,15.3,29.2c4.4,10.2,9.4,15.9,15.1,17.2
		c0.5,0.1,3.1,0.4,7.8,0.9v26c-11.9-0.7-20.4-2.3-25.4-5c-4.4-2.2-8.4-6.5-11.9-12.6c-2-3.3-5-9.5-9.2-18.5
		c-3.3-7.2-5.8-11.7-7.5-13.4c-1.7-1.8-3.7-2.6-6.2-2.6h-11.7c-3.6,0-6.4,1.3-8.2,4c-2,2.7-5.8,10-11.4,21.7
		c-5.3,11.2-10.6,18.3-15.8,21.3C513.4,188.4,505.3,190.1,493,191.4z M638.4,139.2V112h125.9v27.1H715v23h19.2
		c9.5,0,16.7,2.5,21.6,7.5c4.7,4.7,7,10.5,7,17.5v108.6h-27v-98.3c0-5.4-3.1-8.1-9.2-8.1h-52.4c-2.3,0-4.1,1-5.6,2.9
		c-1.3,1.7-1.9,3.4-1.9,5.1v98.3h-27.1v-107c0-8,2.3-14.4,6.9-19.1c4.7-5,11.1-7.5,19.2-7.5h22v-23h-49.3V139.2z M638.5,361.3v-30.1
		c16.2-8.5,28-17.5,35.4-27c6-7.8,9.7-16,11.2-24.5c1.3-7.2,1.9-15.3,1.9-24.2V207h28v50.3c0,12.7,1.2,22.9,3.5,30.5
		c5.5,18,20.7,32.8,45.6,44.3V362c-27.1-12.3-48.2-27.5-63.4-45.6C688.8,332.5,668.1,347.4,638.5,361.3z"/>
	<path class="st0" d="M493.2,246.6v-27.1h48h28h19.7c11,0,20,3.8,27.1,11.4c6.6,7,9.8,15,9.8,23.8v51.6c0,9.5-3.7,17.8-11,24.9
		c-7.2,7.1-16.2,10.7-27,10.7H535v-27.1h47.5c4.5,0,8.2-1.4,11-4.3c3.2-3.1,4.8-6.9,4.8-11.4v-38.9c0-3.6-1.3-6.7-3.8-9.4
		c-2.8-2.8-6.5-4.3-10.9-4.3h-33.9h-27.6L493.2,246.6L493.2,246.6z"/>
	<path class="st0" d="M795.1,207v-27.1h21c11.7,0,19.6,1.3,23.5,4c3.8,2.6,6.6,5.5,8.4,8.5c2.2,3.9,3.4,9.6,3.4,17V322
		c0,5.7,0.6,9.2,1.9,10.6c1.5,1.6,4.7,2.3,9.7,2.3h42.9v26.6l-50.3,0.3c-9.8,0-16.4-1.3-19.8-3.8c-4.2-3.2-7.2-6.5-9-9.8
		c-1.7-3.2-2.5-7.6-2.5-13.2V220.5c0-5.5-0.7-9-2.2-10.7c-1.5-1.9-4.6-2.8-9.5-2.8H795.1z M988,242.3v13.4h76.4v27.1H988v79.8h-27.1
		v-79.8h-72.5v-27.1h72.5v-13.4h-43.3c-9.4,0-16.8-2.7-22.3-8.2c-5.1-5.1-7.6-15.4-7.6-31v-60.7c0-8.9,2.6-15.9,7.9-21
		c5.6-5.4,13.8-8.1,24.8-8.1h105.8c12.3,0,21.2,2.7,26.7,8.2c5.3,5.2,7.9,11.9,7.9,20.1v62.1c0,13.1-1.3,21.8-4,26
		c-5.2,8.4-14.4,12.6-27.7,12.6L988,242.3L988,242.3z M905.7,361.5v-26.6c3-1.2,4.9-2.6,5.7-4.3c0.9-2,2.2-8.5,3.8-19.7l1.6-16.3
		h27.6l-2.1,17.6c-2.2,19.7-6.6,33-13.4,39.9C923.5,358.1,915.7,361.2,905.7,361.5z M915.4,165h45.5v-24.1h-33.6
		c-4.7,0-7.9,0.8-9.5,2.5s-2.3,4.2-2.3,7.6v14H915.4z M960.9,214.7v-22.6h-45.5V205c0,3.7,0.8,6.3,2.3,7.6c1.6,1.4,4.5,2.1,8.8,2.1
		L960.9,214.7L960.9,214.7z M988,165h45.2v-9.4c0-5.9-0.7-9.8-2.1-11.7c-1.3-2-3.9-2.9-7.8-2.9H988V165z M988,214.7h33.5
		c4.9,0,8.1-0.9,9.7-2.6c1.4-1.4,2.1-4.2,2.1-8.4v-11.6H988V214.7z M1003.8,293.8h27.1l2.1,18.5c1.5,9.9,2.5,15.6,3.1,17
		c0.9,2.1,4.8,4.7,9.8,4.7l0.2,27.6c-12.9,0-22-4.6-27.9-10.9c-4.4-4.8-7.6-11.5-9.7-20.2c-1-3.9-2-10.6-2.9-20.1L1003.8,293.8z"/>
	<circle class="st0" cx="558.4" cy="192" r="13.9"/>
	<circle class="st0" cx="829.5" cy="135.4" r="20.3"/>
	<rect x="519.1" y="287.8" class="st0" width="26.5" height="74.7"/>
</g>
</svg>
