<!-- Generator: Adobe Illustrator 22.0.1, SVG Export Plug-In  -->
<svg version="1.1"
	 xmlns="http://www.w3.org/2000/svg" xmlns:xlink="http://www.w3.org/1999/xlink" xmlns:a="http://ns.adobe.com/AdobeSVGViewerExtensions/3.0/"
	 x="0px" y="0px" width="142.3px" height="142.3px" viewBox="0 0 142.3 142.3" style="enable-background:new 0 0 142.3 142.3;"
	 xml:space="preserve">
<style type="text/css">
	.st0{fill:#333333;}
</style>
<defs>
</defs>
<path class="st0" d="M71.2,142.3c-9.6,0-18.9-1.9-27.7-5.6c-8.5-3.6-16.1-8.7-22.6-15.2C14.3,115,9.2,107.3,5.6,98.9
	C1.9,90.1,0,80.8,0,71.2c0-9.6,1.9-18.9,5.6-27.7c3.6-8.5,8.7-16.1,15.3-22.6C27.4,14.3,35,9.2,43.5,5.6C52.2,1.9,61.6,0,71.2,0
	c9.6,0,18.9,1.9,27.7,5.6c8.5,3.6,16.1,8.7,22.6,15.2c6.5,6.5,11.7,14.1,15.2,22.6c3.7,8.8,5.6,18.1,5.6,27.7
	c0,9.6-1.9,18.9-5.6,27.7c-3.6,8.5-8.7,16.1-15.2,22.6c-6.5,6.5-14.1,11.7-22.6,15.2C90.1,140.4,80.8,142.3,71.2,142.3L71.2,142.3z
	 M71.2,8.4c-8.5,0-16.7,1.7-24.4,4.9c-7.5,3.2-14.2,7.7-19.9,13.5C21,32.6,16.5,39.3,13.3,46.7c-3.3,7.7-4.9,16-4.9,24.4
	c0,8.5,1.7,16.7,4.9,24.4c3.2,7.5,7.7,14.2,13.5,19.9c5.8,5.8,12.5,10.3,19.9,13.5c7.7,3.3,16,4.9,24.4,4.9c8.5,0,16.7-1.7,24.4-4.9
	c7.5-3.2,14.2-7.7,19.9-13.5c5.8-5.8,10.3-12.5,13.5-19.9c3.3-7.7,4.9-16,4.9-24.4c0-8.5-1.7-16.7-4.9-24.4
	c-3.2-7.5-7.7-14.2-13.5-19.9C109.8,21,103,16.5,95.6,13.3C87.8,10.1,79.6,8.4,71.2,8.4L71.2,8.4z M71.2,8.4"/>
<path class="st0" d="M70.5,85.1c-2.6,0-4.7-2.1-4.7-4.7V38.8c0-2.6,2.1-4.7,4.7-4.7c2.6,0,4.7,2.1,4.7,4.7v41.6
	C75.2,83,73.1,85.1,70.5,85.1L70.5,85.1z M70.5,107.2c-2.6,0-4.7-2.1-4.7-4.7v-5.5c0-2.6,2.1-4.7,4.7-4.7c2.6,0,4.7,2.1,4.7,4.7v5.5
	C75.1,105.1,73,107.2,70.5,107.2L70.5,107.2z M70.5,107.2"/>
</svg>
