<!-- Generator: Adobe Illustrator 22.0.1, SVG Export Plug-In  -->
<svg version="1.1"
	 xmlns="http://www.w3.org/2000/svg" xmlns:xlink="http://www.w3.org/1999/xlink" xmlns:a="http://ns.adobe.com/AdobeSVGViewerExtensions/3.0/"
	 x="0px" y="0px" width="86.6px" height="142.3px" viewBox="0 0 86.6 142.3" style="enable-background:new 0 0 86.6 142.3;"
	 xml:space="preserve">
<style type="text/css">
	.st0{fill:#999999;}
</style>
<defs>
</defs>
<g>
	<path class="st0" d="M86.6,134.6c0,4.2-3.6,7.7-7.7,7.7H7.7c-4.1,0-7.7-3.6-7.7-7.7V7.7C0,3.6,3.6,0,7.7,0h71.2
		c4.2,0,7.7,3.6,7.7,7.7V134.6z M75.3,23.7c0-4.2-2.4-7.7-6.5-7.7H18.4c-4.7,0-8.3,3.6-8.3,7.7v78.9c0,4.1,3.6,7.7,7.7,7.7h49.8
		c4.2,0,7.7-3.6,7.7-7.7V23.7z M48.6,126.3c0-3-2.4-5.3-5.3-5.3c-3,0-5.3,2.4-5.3,5.3c0,3,2.4,5.3,5.3,5.3
		C46.3,131.6,48.6,129.3,48.6,126.3L48.6,126.3z M48.6,126.3"/>
</g>
</svg>
