<!-- Generator: Adobe Illustrator 22.0.1, SVG Export Plug-In  -->
<svg version="1.1"
	 xmlns="http://www.w3.org/2000/svg" xmlns:xlink="http://www.w3.org/1999/xlink" xmlns:a="http://ns.adobe.com/AdobeSVGViewerExtensions/3.0/"
	 x="0px" y="0px" width="163.5px" height="163.5px" viewBox="0 0 163.5 163.5" style="enable-background:new 0 0 163.5 163.5;"
	 xml:space="preserve">
<style type="text/css">
	.st0{fill:#999999;}
</style>
<defs>
</defs>
<path class="st0" d="M81.7,0C36.6,0,0,36.6,0,81.7c0,45.1,36.6,81.7,81.7,81.7c45.1,0,81.7-36.6,81.7-81.7
	C163.5,36.6,126.9,0,81.7,0L81.7,0z M118,101.7c0,0-2.6,7.1-7.3,13.4c0,0,8.5,2.9,7.8,10.4c0,0,0.3,8.4-18.1,7.8
	c0,0-12.9-1-16.8-6.5H80c-3.9,5.5-16.8,6.5-16.8,6.5c-18.4,0.6-18.1-7.8-18.1-7.8c-0.7-7.5,7.8-10.4,7.8-10.4
	c-4.7-6.3-7.3-13.4-7.3-13.4c-11.5,18.6-10.4-2.6-10.4-2.6c2.2-12.5,11.2-20.7,11.2-20.7C45.1,67,49.8,65,49.8,65
	c1-35.2,31.3-34.6,31.9-34.6c0.6,0,30.9-0.6,31.9,34.6c0,0,4.7,2,3.5,13.4c0,0,9.1,8.2,11.2,20.7C128.3,99.1,129.5,120.3,118,101.7
	L118,101.7z M118,101.7"/>
</svg>
