<!-- Generator: Adobe Illustrator 22.0.1, SVG Export Plug-In  -->
<svg version="1.1"
	 xmlns="http://www.w3.org/2000/svg" xmlns:xlink="http://www.w3.org/1999/xlink" xmlns:a="http://ns.adobe.com/AdobeSVGViewerExtensions/3.0/"
	 x="0px" y="0px" width="152.4px" height="141.9px" viewBox="0 0 152.4 141.9" style="enable-background:new 0 0 152.4 141.9;"
	 xml:space="preserve">
<style type="text/css">
	.st0{fill:#999999;}
</style>
<defs>
</defs>
<path class="st0" d="M149.6,44.2L121,72.9c-3.7,3.7-9.7,3.7-13.4,0c-3.7-3.7-3.7-9.7,0-13.4l11.9-11.9c-9.7-0.4-48.5,0.8-62.9,41
	c-1.4,3.9-5.1,6.3-9,6.3c-1.1,0-2.1-0.2-3.2-0.5c-5-1.8-7.5-7.2-5.8-12.1C54.9,37,97,26.8,120.5,28.6l-12.8-12.5
	c-3.7-3.7-3.7-9.7,0-13.4c3.7-3.7,9.7-3.7,13.4,0l28.6,28c1.8,1.8,2.8,4.2,2.8,6.7C152.4,40,151.4,42.4,149.6,44.2L149.6,44.2z
	 M19,28.5v85c0,5.2,4.3,9.4,9.5,9.4h95.2c5.3,0,9.5-4.2,9.5-9.4V85.2h19V123c0,10.4-8.5,18.9-19,18.9H19c-10.5,0-19-8.5-19-18.9
	V19.1C0,8.6,8.5,0.2,19,0.2h47.6v18.9H28.6C23.3,19.1,19,23.3,19,28.5L19,28.5z M19,28.5"/>
</svg>
