<!-- Generator: Adobe Illustrator 22.0.1, SVG Export Plug-In  -->
<svg version="1.1"
	 xmlns="http://www.w3.org/2000/svg" xmlns:xlink="http://www.w3.org/1999/xlink" xmlns:a="http://ns.adobe.com/AdobeSVGViewerExtensions/3.0/"
	 x="0px" y="0px" width="144.3px" height="162.1px" viewBox="0 0 144.3 162.1" style="enable-background:new 0 0 144.3 162.1;"
	 xml:space="preserve">
<style type="text/css">
	.st0{fill:#FFFFFF;}
</style>
<defs>
</defs>
<path id="XMLID_1_" class="st0" d="M144.2,110.3c-1.1-15.7-11.6-28.8-17.7-35.6c0.8-2,2.9-13.4-5-21.2c0-0.2,0-0.4,0-0.6
	c0-30.8-21.9-52.9-49.4-53C44.7,0.1,22.8,22.2,22.8,53c0,0.2,0,0.4,0,0.6c-7.9,7.8-5.9,19.2-5,21.2C11.7,81.5,1.2,94.7,0,110.3
	c-0.2,4.1,0.4,10.1,2.4,12.8c2.5,3.2,9.2-0.7,14-11c1.3,4.8,4.4,12.2,11.4,21.5c-11.7,2.7-15,14.2-11.1,20.5
	c2.8,4.4,9.1,8.1,20.1,8.1c19.5,0,28.1-5.2,31.9-8.9c0.8-0.8,1.9-1.2,3.4-1.2c1.4,0,2.6,0.4,3.3,1.2c3.8,3.6,12.4,8.9,31.9,8.9
	c11,0,17.3-3.7,20.1-8.1c3.9-6.3,0.6-17.8-11.1-20.5c7-9.3,10.1-16.7,11.4-21.5c4.8,10.4,11.5,14.3,14,11
	C143.8,120.4,144.4,114.4,144.2,110.3L144.2,110.3z M144.2,110.3"/>
</svg>
