<!-- Generator: Adobe Illustrator 22.0.1, SVG Export Plug-In  -->
<svg version="1.1"
	 xmlns="http://www.w3.org/2000/svg" xmlns:xlink="http://www.w3.org/1999/xlink" xmlns:a="http://ns.adobe.com/AdobeSVGViewerExtensions/3.0/"
	 x="0px" y="0px" width="819.2px" height="768px" viewBox="0 0 819.2 768" style="enable-background:new 0 0 819.2 768;"
	 xml:space="preserve">
<style type="text/css">
	.st0{fill:#FFFFFF;}
</style>
<defs>
</defs>
<path class="st0" d="M412.2,609.3H425c41-5.1,74.2-30.7,87-66.6c0-2.6,0-5.1-2.6-7.7c-2.6,0-5.1,0-7.7,2.6c0,0-15.4,23-79.4,30.7
	c-7.7,0-17.9,2.6-28.2,2.6c-43.5,0-64-15.4-64-15.4c-2.6-2.6-5.1-2.6-7.7,0c-2.6,2.6-2.6,5.1,0,7.7
	C343,591.4,376.3,609.3,412.2,609.3L412.2,609.3z M750.1,253.4C711.7,107.5,573.4,0,404.5,0C230.4,0,87,112.6,53.8,263.7
	C25.6,268.8,0,294.4,0,322.6v120.3c0,33.3,30.7,61.4,66.6,61.4c23,0,38.4-7.7,51.2-23c30.7,69.1,89.6,128,163.8,156.2
	c0,0,2.6-2.6,2.6-5.1c0-2.6,2.6-2.6,2.6-2.6h2.6c-15.4-12.8-81.9-71.7-94.7-156.2c-5.1-38.4,25.6-74.2,58.9-79.4
	c56.3-10.2,115.2-20.5,171.5-30.7c35.8-5.1,64-23,76.8-53.8c2.6-7.7,7.7-20.5,10.2-41c0-2.6,2.6-5.1,7.7-5.1c2.6,0,5.1,0,5.1,2.6
	h2.6c23,30.7,69.1,97.3,74.2,166.4c7.7,79.4,2.6,133.1-64,189.4v5.1c0,2.6,0,2.6,2.6,5.1h2.6c0,0,2.6,0,2.6-2.6
	c69.1-33.3,120.3-89.6,145.9-158.7c10.2,12.8,25.6,23,43.5,25.6c-28.2,117.8-145.9,192-286.7,202.2c-7.7-20.5-30.7-33.3-53.8-33.3
	c-33.3,0-56.3,23-56.3,51.2c0,28.2,28.2,51.2,56.3,51.2s48.6-15.4,53.8-35.8c166.4-12.8,297-102.4,325.1-240.6
	c30.7-7.7,46.1-28.2,46.1-53.8V317.4C819.2,279,788.5,253.4,750.1,253.4L750.1,253.4z M691.2,286.7C647.7,181.8,535,105,404.5,105
	c-130.6,0-243.2,74.2-286.7,181.8l-7.7-7.7C135.7,151,258.6,53.8,401.9,53.8c148.5,0,268.8,97.3,291.8,225.3
	C693.8,281.6,691.2,284.2,691.2,286.7L691.2,286.7z M691.2,286.7"/>
</svg>
