<!-- Generator: Adobe Illustrator 22.0.1, SVG Export Plug-In  -->
<svg version="1.1"
	 xmlns="http://www.w3.org/2000/svg" xmlns:xlink="http://www.w3.org/1999/xlink" xmlns:a="http://ns.adobe.com/AdobeSVGViewerExtensions/3.0/"
	 x="0px" y="0px" width="143.7px" height="143.7px" viewBox="0 0 143.7 143.7" style="enable-background:new 0 0 143.7 143.7;"
	 xml:space="preserve">
<style type="text/css">
	.st0{fill:#333333;}
</style>
<defs>
</defs>
<path class="st0" d="M71.8,0C32.2,0,0,32.2,0,71.8c0,39.6,32.2,71.8,71.8,71.8c39.6,0,71.8-32.2,71.8-71.8
	C143.7,32.2,111.4,0,71.8,0L71.8,0z M71.8,134.7C37.2,134.7,9,106.5,9,71.8C9,37.2,37.2,9,71.8,9c34.7,0,62.9,28.2,62.9,62.9
	C134.7,106.5,106.5,134.7,71.8,134.7L71.8,134.7z M103.1,63.6L64.6,42.7c-1.8-1-3.8-1.5-5.7-1.5c-5.6,0-9.6,4.3-9.6,10.1v41
	c0,5.9,4,10.1,9.6,10.1c1.9,0,3.8-0.5,5.7-1.5l38.6-20.9c3.5-1.9,5.5-4.9,5.5-8.1C108.8,68.6,106.7,65.6,103.1,63.6L103.1,63.6z
	 M99,72.2L60.3,93.1c-0.7,0.4-1.2,0.4-1.4,0.4c-0.2,0-0.6,0-0.6-1.2v-41c0-1.2,0.4-1.2,0.6-1.2c0.2,0,0.7,0.1,1.4,0.4l38.4,20.9
	c0.3,0.2,0.5,0.3,0.7,0.4C99.3,72,99.2,72.1,99,72.2L99,72.2z M99,72.2"/>
</svg>
