<!-- Generator: Adobe Illustrator 22.0.1, SVG Export Plug-In  -->
<svg version="1.1"
	 xmlns="http://www.w3.org/2000/svg" xmlns:xlink="http://www.w3.org/1999/xlink" xmlns:a="http://ns.adobe.com/AdobeSVGViewerExtensions/3.0/"
	 x="0px" y="0px" width="778.2px" height="633.3px" viewBox="0 0 778.2 633.3" style="enable-background:new 0 0 778.2 633.3;"
	 xml:space="preserve">
<style type="text/css">
	.st0{fill:#CCCCCC;}
</style>
<defs>
</defs>
<g>
	<path class="st0" d="M467.9,316.2c-13.6,0-27.2,12.6-27.2,28.2c0,12.6,13.6,25.3,27.2,25.3c20.4,0,35-12.7,35-25.3
		C502.9,328.8,488.3,316.2,467.9,316.2 M378.4,184.8c21.4,0,35-13.6,35-34.1c0-21.4-13.6-34-35-34c-20.4,0-39.9,12.6-39.9,34
		C338.5,171.2,358,184.8,378.4,184.8 M276.3,467.9c-36,0-62.3-5.8-96.3-15.6L81.7,502l28.2-83.6C40.8,369.7,0,308.4,0,233.5
		C0,101.2,124.5,0,276.3,0c134.3,0,253.9,79.8,277.2,192.6c-9.7-2-18.5-2.9-26.3-2.9c-132.3,0-234.4,99.2-234.4,218.9
		c0,20.4,2.9,38.9,7.8,58.4C292.8,467.9,284.1,467.9,276.3,467.9 M681.9,563.3l19.4,70l-73.9-41.8c-28.2,5.8-55.4,14.6-83.7,14.6
		c-130.4,0-233.5-89.5-233.5-200.4c0-110.9,103.1-200.4,233.5-200.4c123.5,0,234.4,89.5,234.4,200.4
		C778.2,467.9,736.4,523.4,681.9,563.3 M185.8,116.8c-20.4,0-41.8,12.6-41.8,34c0,20.4,21.4,34.1,41.8,34.1c19.4,0,35-13.6,35-34.1
		C220.8,129.4,205.2,116.8,185.8,116.8 M620.6,316.2c-14.6,0-27.2,12.6-27.2,28.2c0,12.6,12.6,25.3,27.2,25.3
		c19.5,0,34.1-12.7,34.1-25.3C654.7,328.8,640.1,316.2,620.6,316.2"/>
</g>
</svg>
