<!-- Generator: Adobe Illustrator 22.0.1, SVG Export Plug-In  -->
<svg version="1.1"
	 xmlns="http://www.w3.org/2000/svg" xmlns:xlink="http://www.w3.org/1999/xlink" xmlns:a="http://ns.adobe.com/AdobeSVGViewerExtensions/3.0/"
	 x="0px" y="0px" width="163px" height="163px" viewBox="0 0 163 163" style="enable-background:new 0 0 163 163;"
	 xml:space="preserve">
<style type="text/css">
	.st0{fill:#999999;}
</style>
<defs>
</defs>
<g>
	<path class="st0" d="M81.5,0C36.5,0,0,36.5,0,81.5c0,45,36.5,81.5,81.5,81.5c45,0,81.5-36.5,81.5-81.5C163,36.5,126.5,0,81.5,0
		L81.5,0z M102.4,92.6c0,0,1,2.9,2.3,6.9c5.3,0.5,8.8,0.7,8.8,0.7s-3.3,0.2-8.5,0.3c2.7,8.5,6.3,21.1,4.2,22
		c-5.5,2.6-28.8-15.1-28.8-15.1s-22.5,16.6-25.9,14.9c-5.6-2.8,2.1-29.8,2.1-29.8S35.7,76,36.9,71.8c1.2-4.2,31.7-5.6,31.7-5.6
		S77.2,42,81.6,41c4.4-1,13.6,23.7,13.6,23.7s28.9,3.2,30.9,5.8C128,73,102.4,92.6,102.4,92.6L102.4,92.6z M102.7,73.6
		c-25-4.3-43.4,0-43.4,0l30.2,4.2c0,0-28.5,19.2-28.9,21c12.7,2.3,33,2.1,44.4,1.7c-0.1-0.4-0.2-0.7-0.3-1.1c-7.6-0.7-19-2-29.2-3.8
		C75.1,94.1,103.3,74.7,102.7,73.6L102.7,73.6z M102.7,73.6"/>
</g>
</svg>
