<svg t="1713425166829" class="icon" viewBox="0 0 1068 1024" version="1.1" xmlns="http://www.w3.org/2000/svg" p-id="5521"><path d="M810.568702 678.991784A33.563921 33.563921 0 0 1 786.654408 621.880674l205.012627-208.400485-291.586567-55.642689a33.563921 33.563921 0 1 1 12.586471-65.932128l301.666232 57.572614c26.053994 4.982145 44.76588 19.928578 51.321334 40.906029s-0.346128 43.916293-18.953127 62.827466l-212.197405 215.753082a33.563921 33.563921 0 0 1-23.935271 10.027221z m195.258113-262.364978z" fill="#333333" p-id="5522"></path><path d="M824.015248 1023.99743c-10.813876 0-22.267564-2.842445-33.679297-8.537822L519.548526 880.270426a33.57441 33.57441 0 0 1 29.987266-60.07942l261.504903 130.595121-37.1196-294.460478a33.563921 33.563921 0 0 1 66.592918-8.390981l38.462156 304.697474c3.324926 26.316212-5.066054 48.72013-23.075196 61.453443a54.541372 54.541372 0 0 1-31.885725 9.911845z" fill="#333333" p-id="5523"></path><path d="M232.514066 1020.588594a54.667237 54.667237 0 0 1-33.144373-10.688011c-17.663014-13.142373-25.529558-35.735088-21.596286-61.96739l44.84979-299.306269a33.568117 33.568117 0 0 1 66.393632 9.953801l-43.318436 289.100739 268.511372-126.336698a33.566019 33.566019 0 1 1 28.613243 60.72972L264.924227 1012.816449a76.36841 76.36841 0 0 1-32.410161 7.772145z" fill="#333333" p-id="5524"></path><path d="M254.980915 680.628026a33.480012 33.480012 0 0 1-24.480685-10.593613L20.295684 446.14208C2.129211 426.80087-4.237445 403.788606 2.810978 382.884576s26.095949-35.326027 52.265319-39.689337l298.530104-49.789979a33.56497 33.56497 0 0 1 11.044628 66.215323L76.294989 407.71139l203.145634 216.340451a33.563921 33.563921 0 0 1-24.459708 56.53423z" fill="#333333" p-id="5525"></path><path d="M703.950808 355.03701a33.563921 33.563921 0 0 1-29.808958-18.093051L539.298796 77.589245l-143.013771 260.120391a33.563921 33.563921 0 1 1-58.820773-32.347229L485.44968 36.179757C498.235436 12.936742 518.205969-0.268564 540.200826 0.004143s41.661217 13.90805 53.90156 37.44475l139.604936 268.511371a33.563921 33.563921 0 0 1-29.756514 49.055769z m-157.330882-289.971303z" p-id="5526"></path></svg>