<svg viewBox="0 0 54 54" fill="none" xmlns="http://www.w3.org/2000/svg">
<rect rx="27" fill="#F1F1F1"/>
<g clip-path="url(#clip0_9570_337546)">
<path d="M33.1203 40.0001H21.7801C19.7698 40.0001 18.1719 38.4021 18.1719 36.3918V18.8661C18.1719 16.8558 19.7698 15.2578 21.7801 15.2578H33.1203C35.1306 15.2578 36.7286 16.8558 36.7286 18.8661V36.3918C36.7286 38.4021 35.1306 40.0001 33.1203 40.0001ZM21.7801 17.3197C20.9038 17.3197 20.2337 17.9898 20.2337 18.8661V36.3918C20.2337 37.2681 20.9038 37.9382 21.7801 37.9382H33.1203C33.9966 37.9382 34.6667 37.2681 34.6667 36.3918V18.8661C34.6667 17.9898 33.9966 17.3197 33.1203 17.3197H21.7801Z" fill="#666666"/>
<path d="M34.667 32.7835H20.2341C19.667 32.7835 19.2031 32.3196 19.2031 31.7526C19.2031 31.1856 19.667 30.7217 20.2341 30.7217H34.667C35.2341 30.7217 35.698 31.1856 35.698 31.7526C35.698 32.3196 35.2341 32.7835 34.667 32.7835ZM27.4506 36.6495C26.5743 36.6495 25.9042 35.9794 25.9042 35.1031C25.9042 34.2784 26.5743 33.5567 27.4506 33.5567C28.2753 33.5567 28.9969 34.2268 28.9969 35.1031C28.9969 35.9794 28.3268 36.6495 27.4506 36.6495Z" fill="#666666"/>
</g>
<defs>
<clipPath id="clip0_9570_337546">
<rect fill="white" transform="translate(15 15)"/>
</clipPath>
</defs>
</svg>
