<?xml version="1.0" standalone="no"?><!DOCTYPE svg PUBLIC "-//W3C//DTD SVG 1.1//EN" "http://www.w3.org/Graphics/SVG/1.1/DTD/svg11.dtd"><svg t="1710077554506" class="icon" viewBox="0 0 1024 1024" version="1.1" xmlns="http://www.w3.org/2000/svg" p-id="7445" xmlns:xlink="http://www.w3.org/1999/xlink"><path d="M856.006891 49.877991 793.57805 49.877991c-17.263176 0-37.193087 10.472516-37.193087 27.492144s19.929912 34.038234 37.193087 34.038234l62.428841 0c37.190017 0 62.425771 24.877597 62.425771 61.530378l0 708.23636c0 36.652781-25.235754 61.530378-62.425771 61.530378L183.931103 942.705486c-37.185924 0-78.360695-24.877597-78.360695-61.530378L105.570407 172.937724c0-36.652781 25.232684-61.530378 62.425771-61.530378l78.363765 0c17.270339 0 23.907503-17.019629 23.907503-34.038234s-6.638187-27.492144-23.907503-27.492144l-78.363765 0c-87.661525 0-124.853589 53.674457-124.853589 124.365472l0 700.384531c0 75.928297 46.486754 129.603777 131.494846 129.603777l674.722058 0c85.011162 0 131.497916-44.51382 131.497916-129.603777L980.857411 174.243463C980.857411 103.552447 937.03023 49.877991 856.006891 49.877991L856.006891 49.877991 856.006891 49.877991zM246.359944 327.412958c0 17.022699 14.609743 31.420617 31.873941 31.420617l468.857411 0c17.266245 0 31.880081-14.398942 31.880081-31.420617 0-17.019629-14.613836-31.420617-31.880081-31.420617L278.233885 295.992341C260.969687 295.991318 246.359944 310.393329 246.359944 327.412958L246.359944 327.412958 246.359944 327.412958zM745.766115 466.180442 278.233885 466.180442c-17.263176 0-31.873941 14.402011-31.873941 31.42471 0 17.015535 14.609743 31.414477 31.873941 31.414477l468.857411 0c17.266245 0 31.880081-14.398942 31.880081-31.414477C777.646196 479.273644 763.02929 466.180442 745.766115 466.180442L745.766115 466.180442 745.766115 466.180442zM745.766115 650.767484 278.233885 650.767484c-17.263176 0-31.873941 14.402011-31.873941 31.417547 0 17.019629 14.609743 31.417547 31.873941 31.417547l468.857411 0c17.266245 0 31.880081-14.398942 31.880081-31.417547C777.646196 663.860686 763.02929 650.767484 745.766115 650.767484L745.766115 650.767484 745.766115 650.767484zM404.415726 127.118166l217.828121 0c25.235754 0 46.486754-24.871457 46.486754-53.674457 0-28.79686-21.251-53.674457-47.818075-53.674457L404.415726 19.769252c-26.564006 0-47.811936 24.874527-47.811936 53.674457C356.603791 102.246709 377.851721 127.118166 404.415726 127.118166L404.415726 127.118166 404.415726 127.118166zM404.415726 127.118166" p-id="7446"></path></svg>