<svg  viewBox="0 0 54 54" fill="none" xmlns="http://www.w3.org/2000/svg">
<rect rx="27" fill="#F1F1F1"/>
<path d="M20.0224 39.285C18.113 39.2822 16.5575 37.7267 16.5547 35.8173V26.7228C16.5578 24.9352 17.9266 23.4426 19.6931 23.2722V22.3263C19.6955 20.2868 20.4877 18.3535 21.9238 16.8828C23.3686 15.4033 25.0195 14.5873 27.0444 14.585C29.0695 14.5873 30.7203 15.4033 32.1652 16.8828C33.6015 18.3535 34.3937 20.2866 34.3959 22.3262V23.2735C36.1623 23.4438 37.5312 24.9363 37.5345 26.7238V35.8173C37.5316 37.7268 35.976 39.2822 34.0666 39.2851H20.0224V39.285ZM20.0226 25.1547C19.1585 25.1559 18.4544 25.86 18.4531 26.7242V35.8172C18.4537 36.6818 19.1578 37.3864 20.0226 37.3876H34.0663C34.916 37.387 35.6106 36.708 35.6361 35.8644L35.6357 26.724C35.6345 25.86 34.9304 25.1559 34.0661 25.1547H20.0224H20.0226ZM32.4998 23.2564V22.3263C32.4954 19.1625 30.138 16.4867 27.0444 16.4835C23.9512 16.4866 21.5937 19.1624 21.5892 22.3265V23.2562H32.4998V23.2564Z" fill="#666666"/>
<path d="M27.0445 26.959C25.2903 26.9617 23.8693 28.3835 23.8672 30.1376C23.8681 30.8376 24.0995 31.5177 24.5258 32.0729C24.952 32.6281 25.5493 33.0274 26.2253 33.2091V35.4334C26.2238 35.5419 26.2439 35.6495 26.2844 35.7501C26.3249 35.8508 26.3849 35.9423 26.4611 36.0196C26.5372 36.0968 26.6279 36.1581 26.728 36.2C26.828 36.2419 26.9353 36.2635 27.0438 36.2636C27.1522 36.2637 27.2596 36.2423 27.3597 36.2005C27.4598 36.1588 27.5507 36.0976 27.6269 36.0205C27.7032 35.9434 27.7634 35.8519 27.804 35.7513C27.8447 35.6508 27.8649 35.5432 27.8636 35.4347V33.2091C28.5399 33.0277 29.1375 32.6285 29.564 32.0733C29.9905 31.5181 30.2221 30.8377 30.223 30.1376C30.2212 28.383 28.799 26.9611 27.0445 26.959ZM27.0445 31.6788C26.1934 31.678 25.5034 30.9886 25.5021 30.1376C25.4933 29.9296 25.5267 29.7219 25.6003 29.5272C25.6739 29.3324 25.7861 29.1545 25.9302 29.0042C26.0743 28.8539 26.2473 28.7343 26.4388 28.6526C26.6303 28.5709 26.8364 28.5288 27.0446 28.5288C27.2528 28.5288 27.4589 28.5709 27.6504 28.6526C27.8419 28.7343 28.0149 28.8539 28.159 29.0042C28.3031 29.1545 28.4153 29.3324 28.4889 29.5272C28.5624 29.7219 28.5959 29.9296 28.5871 30.1376C28.587 30.9885 27.8954 31.6788 27.0445 31.6788Z" fill="#666666"/>
</svg>
