<?xml version="1.0" standalone="no"?><!DOCTYPE svg PUBLIC "-//W3C//DTD SVG 1.1//EN" "http://www.w3.org/Graphics/SVG/1.1/DTD/svg11.dtd"><svg t="1710077571534" class="icon" viewBox="0 0 1024 1024" version="1.1" xmlns="http://www.w3.org/2000/svg" p-id="8466" xmlns:xlink="http://www.w3.org/1999/xlink"><path d="M656.069956 492.811993a266.713304 266.713304 0 1 0-284.302311 0C176.369769 554.853217 41.733916 748.971893 41.733916 991.380387a31.980012 31.980012 0 1 0 63.960025 0c0-261.276702 174.610868-458.593379 406.465959-458.593379s406.146159 197.956277 406.146159 458.593379a31.980012 31.980012 0 0 0 63.960025 0c0-240.809494-133.036852-434.28857-326.196128-498.568394zM311.965022 266.713304a202.753279 202.753279 0 1 1 202.753279 202.753279 203.073079 203.073079 0 0 1-202.753279-202.753279z" p-id="8467"></path></svg>