<svg width="44" height="44" viewBox="0 0 44 44" fill="none" xmlns="http://www.w3.org/2000/svg">
<path d="M14.5104 14.6885C13.7474 14.6885 12.9844 15.1971 12.9844 15.9602C12.9844 16.7232 13.7474 17.2318 14.5104 17.2318C15.2734 17.2318 15.7821 16.7232 15.7821 15.9602C15.7821 15.1654 15.2734 14.6885 14.5104 14.6885ZM24.8428 22.0642C24.3341 22.0642 23.8572 22.6047 23.8572 23.0815C23.8572 23.622 24.3659 24.0989 24.8428 24.0989C25.6058 24.0989 26.1144 23.5902 26.1144 23.0815C26.1144 22.5729 25.6058 22.0642 24.8428 22.0642ZM21.5682 17.2318C22.3312 17.2318 22.8399 16.6914 22.8399 15.9602C22.8399 15.1971 22.3312 14.6885 21.5682 14.6885C20.8052 14.6885 20.0422 15.1971 20.0422 15.9602C20.0422 16.7232 20.8052 17.2318 21.5682 17.2318ZM30.3745 22.0642C29.8659 22.0642 29.389 22.6047 29.389 23.0815C29.389 23.622 29.8977 24.0989 30.3745 24.0989C31.1376 24.0989 31.6462 23.5902 31.6462 23.0815C31.6462 22.5729 31.1376 22.0642 30.3745 22.0642Z" fill="#28C445"/>
<path d="M21.9364 0.126953C9.8237 0.126953 0 9.95065 0 22.0634C0 34.1761 9.8237 43.9998 21.9364 43.9998C34.0491 43.9998 43.8728 34.1761 43.8728 22.0634C43.8728 9.95065 34.0491 0.126953 21.9364 0.126953ZM17.7717 27.6905C16.5 27.6905 15.4827 27.4362 14.2746 27.1501L10.7775 28.9304L11.763 25.8466C9.25144 24.0663 7.72543 21.7455 7.72543 18.9796C7.72543 14.1154 12.2717 10.3004 17.7717 10.3004C22.6994 10.3004 27.0549 13.3524 27.9133 17.4535C27.5954 17.4218 27.2775 17.39 26.9595 17.39C22.1907 17.4535 18.4393 21.046 18.4393 25.4969C18.4393 26.2281 18.5665 26.9275 18.7572 27.627C18.4393 27.6588 18.0896 27.6905 17.7717 27.6905ZM32.6503 31.2512L33.4133 33.7946L30.6792 32.2686C29.6936 32.5229 28.6763 32.7772 27.659 32.7772C22.8584 32.7772 19.0751 29.4709 19.0751 25.3697C19.0433 21.3004 22.8266 17.994 27.5954 17.994C32.1416 17.994 36.1474 21.3322 36.1474 25.4015C36.1474 27.6905 34.6532 29.7252 32.6503 31.2512Z" fill="#28C445"/>
</svg>
